<?xml version="1.0" encoding="UTF-8"?>
<svg version="1.1" xmlns="http://www.w3.org/2000/svg" width="500" height="500">
<path d="M0 0 C165 0 330 0 500 0 C500 165 500 330 500 500 C335 500 170 500 0 500 C0 335 0 170 0 0 Z " fill="#FEFEFF" transform="translate(0,0)"/>
<path d="M0 0 C2.96175123 0.61277612 4.38058783 1.25372522 7 3 C7.99 2.67 8.98 2.34 10 2 C10.0515625 3.03125 10.103125 4.0625 10.15625 5.125 C11.16036977 9.736513 13.14557226 11.91582695 16.5 15 C17.31476807 15.78080933 17.31476807 15.78080933 18.14599609 16.57739258 C21.84474862 20.07198965 25.71125123 23.2659564 29.796875 26.30078125 C32.27459136 28.21178589 34.56493392 30.26470378 36.875 32.375 C43.17517804 38.1130083 49.73847554 43.49986541 56.4921875 48.6953125 C65.160221 55.3724673 73.44288605 61.83569684 79.375 71.1875 C82.57472586 75.97974996 85.83686349 77.77833789 90.953125 80.23046875 C95.38438473 82.80400806 98.84971389 86.20490285 102.49658203 89.77490234 C107.68565857 94.83063377 112.42352135 97.27243787 119.4375 99.1875 C126.71371027 101.27434468 132.59390171 104.39506644 138.9140625 108.5234375 C142.51171426 110.24484556 144.21935669 110.05585534 148 109 C148.66 107.02 149.32 105.04 150 103 C149.37351562 103.09539062 148.74703125 103.19078125 148.1015625 103.2890625 C147.28429687 103.39992188 146.46703125 103.51078125 145.625 103.625 C144.81289063 103.74101563 144.00078125 103.85703125 143.1640625 103.9765625 C142.09285156 103.98816406 142.09285156 103.98816406 141 104 C137.75263759 100.75263759 137.46974557 96.06052978 136.5 91.67773438 C136.0566736 89.77108452 135.5339123 87.88329223 135 86 C134.34 85.67 133.68 85.34 133 85 C133.47401819 82.08817396 133.93960775 79.23058861 134.6875 76.375 C135.23787445 74.0075082 135.23787445 74.0075082 134 72.1875 C132.44545471 68.78693218 133.22996601 65.53645239 134 62 C134.33 61.195625 134.66 60.39125 135 59.5625 C136.00616468 56.984203 136.15652385 55.17376737 136.3125 52.4375 C136.63687605 48.82731474 136.77111056 48.2347584 139.4375 45.5 C144.6183684 42.46729655 148.81430756 42.78043945 154.75 42.75 C155.74 42.729375 156.73 42.70875 157.75 42.6875 C164.22875999 42.65285422 168.82660825 43.13852282 173.828125 47.6484375 C174.29734375 48.21820313 174.7665625 48.78796875 175.25 49.375 C175.72953125 49.93960938 176.2090625 50.50421875 176.703125 51.0859375 C179.99361585 55.94238483 180.35292075 60.50078049 180.3125 66.25 C180.31056641 67.38779907 180.31056641 67.38779907 180.30859375 68.54858398 C180.22389821 73.48262851 179.51319292 77.50516209 177.6875 82.11328125 C175.092591 89.23453721 177.96830326 95.43815643 180.515625 102.14453125 C182.8154304 106.56863058 184.9298626 107.60586196 189.57421875 109.31640625 C190.9426335 109.74051341 192.31388999 110.15553396 193.6875 110.5625 C194.40429932 110.78301025 195.12109863 111.00352051 195.85961914 111.23071289 C199.53467641 112.34226062 203.15047799 113.27947135 206.9375 113.9375 C215.80402111 115.79171544 222.99315191 122.74946501 228 130 C229.38064685 133.03821428 230.55771038 136.11229155 231.734375 139.234375 C233.30941432 142.6761276 235.30074241 144.47887185 238.08984375 146.94921875 C240.70163495 149.75328905 242.49302499 152.86376812 244.375 156.1875 C244.89380737 157.09798096 244.89380737 157.09798096 245.4230957 158.02685547 C247.04811168 160.96937501 248.44548042 163.67288253 249 167 C249.13664062 167.76957031 249.27328125 168.53914062 249.4140625 169.33203125 C249.64966507 172.10254297 249.64179638 174.2859983 249 177 C246.43040845 180.03247409 243.35722152 181.91843055 240 184 C239.36408936 184.45141357 238.72817871 184.90282715 238.07299805 185.36791992 C232.25179004 189.46080418 226.29819539 192.22260518 219.6875 194.8125 C218.71232422 195.20630859 217.73714844 195.60011719 216.73242188 196.00585938 C209.0368109 199.08516013 209.0368109 199.08516013 205 200 C204.87625 201.134375 204.7525 202.26875 204.625 203.4375 C204.26584582 206.42004122 203.70509424 209.22338491 202.9375 212.125 C198.75439935 230.60036121 206.16199044 249.97870447 210.5625 267.8125 C211.30717882 270.83547518 212.05123759 273.85859994 212.79417419 276.88200378 C213.25276334 278.74776248 213.71237782 280.61326959 214.17323303 282.47846985 C215.36594297 287.32578256 216.51886968 292.17818384 217.57727051 297.0567627 C217.90275816 298.55299079 218.24950176 300.04460618 218.60522461 301.53393555 C219.18599375 305.16185703 219.23756831 308.79131658 219.31640625 312.45703125 C219.33718735 313.27765549 219.35796844 314.09827972 219.37937927 314.94377136 C219.42254184 316.68276054 219.46359594 318.42180317 219.50268555 320.16088867 C219.56144212 322.76560354 219.6267924 325.3700837 219.69335938 327.97460938 C219.79817951 332.18576329 219.88200543 336.39696967 219.95458984 340.60879517 C219.99803968 342.89677382 220.05798695 345.18387422 220.11914062 347.47143555 C220.2808291 355.14811816 219.81684158 361.88592222 217.375 369.1875 C216.8210387 370.97898869 216.26767074 372.77066095 215.71484375 374.5625 C215.4297998 375.4596875 215.14475586 376.356875 214.85107422 377.28125 C213.45992554 381.72526368 212.2030057 386.20641245 210.9375 390.6875 C210.43789517 392.44412286 209.93790018 394.2006348 209.4375 395.95703125 C209.19644531 396.80475098 208.95539063 397.6524707 208.70703125 398.52587891 C208.04097281 400.85662346 207.36522614 403.18434556 206.6875 405.51171875 C202.07400007 421.51089406 198.19813005 437.76484824 196.359375 454.33203125 C196 457 196 457 195 459 C194.34 459 193.68 459 193 459 C196.24406423 465.19321353 200.9467863 467.74235446 207 471 C206.67 472.65 206.34 474.3 206 476 C188.3957323 477.1442774 188.3957323 477.1442774 183.03125 474.58203125 C181.09149284 472.8325195 179.53713047 471.10677294 178 469 C174.61595029 465.37340638 174.61595029 465.37340638 170 464 C170 464.66 170 465.32 170 466 C165.65636456 465.48898407 162.01668054 464.70656894 158 463 C157.42730268 454.39681353 157.93314082 448.06992076 161.6328125 440.2734375 C163.56112284 435.6565116 164.54800862 430.94082577 165.61791992 426.06713867 C166.41588552 422.45334941 167.26345716 418.96635784 168.5625 415.5 C170.30253767 410.64670575 171.02344436 405.59898073 171.87084961 400.53295898 C174.72659568 383.54680865 174.72659568 383.54680865 177 379 C177.10632188 377.29294321 177.1848019 375.58412154 177.25 373.875 C177.85805822 365.52433374 180.23859843 356.52280314 184 349 C183.21337754 333.7919657 177.55374747 319.4639026 172.35375977 305.32104492 C171.92248779 304.14517822 171.49121582 302.96931152 171.046875 301.7578125 C170.45664551 300.16670654 170.45664551 300.16670654 169.85449219 298.54345703 C169 296 169 296 169 294 C168.34 294 167.68 294 167 294 C166.82186768 294.60295898 166.64373535 295.20591797 166.46020508 295.82714844 C164.89158385 301.10096995 163.25520806 306.34659666 161.55273438 311.57861328 C155.19112024 331.21991743 150.2420635 350.78412266 146.53515625 371.08642578 C144.84520461 380.25248964 142.69760105 389.06907962 140 398 C139.4102483 400.12322766 138.82592202 402.24797941 138.25 404.375 C138.00765625 405.26960938 137.7653125 406.16421875 137.515625 407.0859375 C137.34546875 407.71757812 137.1753125 408.34921875 137 409 C137.639375 409.2475 138.27875 409.495 138.9375 409.75 C141 411 141 411 141.75 413.125 C141.8325 413.74375 141.915 414.3625 142 415 C140.77864002 416.13347055 139.54750819 417.25641587 138.3125 418.375 C137.62800781 419.00148438 136.94351562 419.62796875 136.23828125 420.2734375 C134 422 134 422 131.30078125 422.890625 C130.54152344 423.25671875 129.78226562 423.6228125 129 424 C128.0613257 426.45001136 128.0613257 426.45001136 127.875 429.375 C127.32371422 433.83345684 126.5288999 437.98691649 125.3125 442.3125 C123.3102488 450.2290932 124.7707218 455.56142848 128.45703125 462.70703125 C130.05398116 465.0802201 131.4258227 466.27786165 133.8125 467.8125 C135.3903125 468.8953125 135.3903125 468.8953125 137 470 C137.19921875 472.63671875 137.19921875 472.63671875 137 475 C133.75047252 475.14546783 130.50178287 475.2341168 127.25 475.3125 C126.32960938 475.35439453 125.40921875 475.39628906 124.4609375 475.43945312 C117.59101089 475.56390832 117.59101089 475.56390832 114.359375 472.48046875 C113.91078125 471.66191406 113.4621875 470.84335937 113 470 C112.4225 470.804375 111.845 471.60875 111.25 472.4375 C108.8399973 475.1822253 108.4095816 475.45784038 105 476 C103.12750843 476.11535407 101.25099879 476.1748585 99.375 476.1875 C98.41335938 476.20167969 97.45171875 476.21585937 96.4609375 476.23046875 C94 476 94 476 92 474 C91.4386517 469.06013497 92.82773315 466.34453371 95 462 C94.74398588 458.92783056 94.21436106 458.21436106 92 456 C92.2519789 452.38830237 93.07194168 449.84781567 94.625 446.5625 C96.5659438 441.53369105 95.66453266 437.99359799 94 433 C90.70841135 432.94094583 87.41696244 432.90605625 84.125 432.875 C83.2071875 432.85824219 82.289375 432.84148437 81.34375 432.82421875 C74.950573 432.77919638 69.23238761 433.56349687 63 435 C63.33 438.3 63.66 441.6 64 445 C58.38420511 449.95800073 52.99378943 449.56943741 45.75 449.4375 C44.66847656 449.44458984 43.58695313 449.45167969 42.47265625 449.45898438 C35.96025118 449.40792209 28.81902997 449.26759724 23 446 C22.00663765 443.51184877 22 441.7049278 22 439 C19.41213185 437.70606592 17.32830153 437.81671846 14.4375 437.6875 C9.24643923 437.31269417 5.35119603 436.21187928 0.7421875 433.83984375 C-0.97792373 432.85525311 -0.97792373 432.85525311 -3 433 C-5.61639145 437.90573397 -5.98024566 442.60864887 -5 448 C-2.8498616 454.59641227 -0.02331232 461.82252111 5.72265625 465.9609375 C8.37009018 467.2243294 8.37009018 467.2243294 10.99609375 467.98046875 C11.65738281 468.31691406 12.31867188 468.65335937 13 469 C13.78515625 471.61328125 13.78515625 471.61328125 14 474 C9.70363247 475.43212251 5.56431635 475.30490803 1.0625 475.375 C0.15564453 475.41238281 -0.75121094 475.44976562 -1.68554688 475.48828125 C-8.38413022 475.57700421 -8.38413022 475.57700421 -11.4140625 472.73828125 C-12.19910156 471.38283203 -12.19910156 471.38283203 -13 470 C-14.13276806 468.59354302 -15.27796856 467.19697519 -16.4375 465.8125 C-16.99308594 465.13832031 -17.54867187 464.46414063 -18.12109375 463.76953125 C-20.25398129 461.54441404 -20.25398129 461.54441404 -25 460 C-25 464.29 -25 468.58 -25 473 C-26.32 473 -27.64 473 -29 473 C-29.02578125 472.14277344 -29.0515625 471.28554688 -29.078125 470.40234375 C-29.25292378 462.92926585 -29.25292378 462.92926585 -32.0625 456.1875 C-34.64232314 451.94327483 -34.55383471 449.90539311 -34 445 C-32.5991078 441.82955975 -31.07912655 440.07506878 -28.5625 437.6875 C-24.04498804 432.9496216 -21.86693739 427.22312463 -20 421 C-21.74985354 420.52029877 -23.49988891 420.04126076 -25.25 419.5625 C-26.22453125 419.29566406 -27.1990625 419.02882813 -28.203125 418.75390625 C-29.12609375 418.50511719 -30.0490625 418.25632812 -31 418 C-32.02480469 417.70802734 -32.02480469 417.70802734 -33.0703125 417.41015625 C-35.29663751 416.93694952 -37.35023002 416.86739207 -39.625 416.875 C-40.78902344 416.87113281 -40.78902344 416.87113281 -41.9765625 416.8671875 C-44.06959248 416.87326631 -44.06959248 416.87326631 -46 418 C-47.13350534 420.01669827 -47.13350534 420.01669827 -48 422 C-58.48737583 421.22315735 -66.56179057 417.11464452 -75 411 C-81.89220713 418.12912675 -86.68525565 426.34407258 -91.67578125 434.859375 C-96.26463556 442.43810337 -101.937431 448.61374405 -108 455 C-109.42457023 456.57622605 -110.84206525 458.15889704 -112.25 459.75 C-113.19166016 460.81154297 -113.19166016 460.81154297 -114.15234375 461.89453125 C-115.42355145 463.34311677 -116.68611597 464.79931821 -117.94140625 466.26171875 C-118.86759766 467.33873047 -118.86759766 467.33873047 -119.8125 468.4375 C-120.35519531 469.07558594 -120.89789063 469.71367187 -121.45703125 470.37109375 C-123.84304846 472.89000306 -125.54512638 473.9431408 -129 474.375 C-132 474 -132 474 -133.65625 472.42578125 C-136.53304559 467.23249618 -135.61855655 460.73949105 -135 455 C-133.01800735 448.56769979 -128.92463985 444.71848207 -123.8046875 440.57421875 C-121.60990121 438.65971902 -120.26662909 436.6124225 -119 434 C-119.763125 434.33 -120.52625 434.66 -121.3125 435 C-124 436 -124 436 -127 436 C-127 434.68 -127 433.36 -127 432 C-125.783125 431.62875 -124.56625 431.2575 -123.3125 430.875 C-118.72463954 429.18601774 -116.86854034 426.88096634 -114 423 C-111.28287875 421.64143937 -109.01904238 422.16161558 -106.0703125 422.453125 C-102.74873573 421.72613839 -101.85812402 419.77995597 -100 417 C-98.48344557 414.27521312 -97.10506802 411.49550207 -95.75 408.6875 C-95.38648438 407.94693359 -95.02296875 407.20636719 -94.6484375 406.44335938 C-93.76009463 404.63160746 -92.87927407 402.81617047 -92 401 C-92.47050781 400.46890625 -92.94101563 399.9378125 -93.42578125 399.390625 C-94.35970703 398.33101563 -94.35970703 398.33101563 -95.3125 397.25 C-95.92738281 396.55390625 -96.54226562 395.8578125 -97.17578125 395.140625 C-98.87314734 393.14885494 -100.45477809 391.11101085 -102 389 C-102.99 389.37125 -103.98 389.7425 -105 390.125 C-106.91015625 390.44140625 -106.91015625 390.44140625 -109 390 C-112.13100344 386.98879148 -114.57063974 383.59040517 -117 380 C-116.66226563 379.39671875 -116.32453125 378.7934375 -115.9765625 378.171875 C-114.73069874 375.40107401 -115.20273583 373.87015101 -116 371 C-118.31 371 -120.62 371 -123 371 C-123.79423861 369.43880578 -124.58527123 367.87598036 -125.375 366.3125 C-125.81585938 365.44238281 -126.25671875 364.57226562 -126.7109375 363.67578125 C-129.07444542 358.76971178 -130.26218867 355.26338184 -130.1875 349.75 C-130.17783203 348.16445313 -130.17783203 348.16445313 -130.16796875 346.546875 C-130 344 -130 344 -129 343 C-127.62370319 342.97368098 -126.24606166 343.0121793 -124.87109375 343.078125 C-93.79909773 344.14036585 -71.05608898 327.46595534 -49 307 C-36.53549045 295.319766 -22.06553227 281.46605108 -17.7578125 264.5078125 C-15.52617486 257.12270237 -11.48623344 251.0069958 -5.8671875 245.8125 C1.57402096 238.58923488 7.62397893 230.72730935 7.875 220.0625 C8.04337045 207.71965055 1.71477684 197.56741062 -4 187 C-5.22787107 184.63415557 -6.42820106 182.25686456 -7.625 179.875 C-8.07101563 179.02679688 -8.51703125 178.17859375 -8.9765625 177.3046875 C-10.05548193 174.87505978 -10.58069553 172.61832346 -11 170 C-11.23074219 170.51949219 -11.46148437 171.03898438 -11.69921875 171.57421875 C-13.41413796 175.24129897 -14.55935344 177.639471 -17.75 180.25 C-21.35087515 184.65106963 -20.39262258 189.52945879 -20 195 C-23.60654039 192.59563974 -23.85452932 191.05320393 -25 187 C-25.42410156 187.68707031 -25.84820312 188.37414062 -26.28515625 189.08203125 C-29.94162477 194.69933124 -32.35171142 198.36928771 -39 200 C-41.4375 199.6875 -41.4375 199.6875 -43 199 C-37.25 196 -37.25 196 -35 196 C-33.50178941 192.62902617 -33 190.79557881 -33 187 C-33.9075 187.639375 -34.815 188.27875 -35.75 188.9375 C-40.71351657 192.08742398 -44.83121273 192.1819504 -50.625 192.1875 C-51.305625 192.19974609 -51.98625 192.21199219 -52.6875 192.22460938 C-54.45990756 192.22986355 -56.2317994 192.12215906 -58 192 C-58.66 191.34 -59.32 190.68 -60 190 C-59.16855469 189.61328125 -58.33710938 189.2265625 -57.48046875 188.828125 C-56.39378906 188.30734375 -55.30710937 187.7865625 -54.1875 187.25 C-53.10855469 186.73953125 -52.02960938 186.2290625 -50.91796875 185.703125 C-48.0728605 184.04252634 -46.7130307 182.76489165 -45 180 C-45.598125 180.474375 -46.19625 180.94875 -46.8125 181.4375 C-50.81010808 184.29293434 -54.22434299 184.09010674 -59 184 C-56.82135476 182.22480759 -55.18652937 181.05526796 -52.46875 180.25 C-49.76310547 179.20816606 -49.76310547 179.20816606 -48.85546875 176.3984375 C-48.52482422 174.90183594 -48.52482422 174.90183594 -48.1875 173.375 C-47.95417969 172.37210938 -47.72085938 171.36921875 -47.48046875 170.3359375 C-47.32191406 169.56507813 -47.16335937 168.79421875 -47 168 C-50.19909571 168 -51.07098624 168.45688807 -53.75 170 C-57.76844916 172.1134066 -60.5109067 172.37409111 -65 172 C-63.9790625 171.2575 -63.9790625 171.2575 -62.9375 170.5 C-60.48844142 168.41569483 -58.61398632 166.44354815 -56.5625 164 C-54.34330411 161.37555964 -52.77387589 159.8581182 -49.8125 158 C-46.04800477 155.32302562 -44.72964903 152.19185531 -43 148 C-48.58500574 150.2340023 -51.69375195 152.54101394 -55.5625 157.1875 C-60.15096092 162.61239911 -60.15096092 162.61239911 -64.0625 163.125 C-65.031875 163.08375 -66.00125 163.0425 -67 163 C-65 161 -65 161 -62.1875 160 C-58.66090601 157.78723514 -58.27625847 156.86702048 -56.6875 153.1875 C-54.4162706 148.12147858 -51.81677444 146.020841 -47.09375 143.25 C-44.68172302 141.80998389 -42.85760723 140.09990383 -41 138 C-47.56630176 140.16751709 -52.12934327 141.96632922 -56 148 C-57.46416016 150.95248138 -58.78208761 153.93820907 -60 157 C-60.66 156.67 -61.32 156.34 -62 156 C-59.00304497 146.54806489 -56.31847389 140.25325848 -47.375 135.375 C-46.61960937 134.99085938 -45.86421875 134.60671875 -45.0859375 134.2109375 C-42.94125924 132.96589956 -41.51883244 131.96008345 -40 130 C-39.42909934 127.73425147 -39.42909934 127.73425147 -39.1875 125.25 C-38.20550306 119.81733954 -36.35280053 116.43834664 -32 113 C-29.65930636 111.72889485 -27.33999149 110.68374882 -24.85546875 109.7265625 C-23.01536058 109.14889414 -23.01536058 109.14889414 -22 108 C-21.90068381 106.58620481 -21.87030705 105.16727151 -21.875 103.75 C-21.87242187 102.98171875 -21.86984375 102.2134375 -21.8671875 101.421875 C-21.92547133 99.03577845 -21.92547133 99.03577845 -22.5 96.91162109 C-23.18453192 92.92542592 -23.14261973 89.02940018 -23.1328125 84.9921875 C-23.13376923 84.11209015 -23.13472595 83.2319928 -23.13571167 82.32522583 C-23.13639153 80.45753915 -23.13455079 78.58985009 -23.13037109 76.72216797 C-23.12510981 73.93321043 -23.13027546 71.14442069 -23.13671875 68.35546875 C-23.14047388 62.90266124 -23.08911079 57.45205007 -23 52 C-22.98674683 51.10381958 -22.97349365 50.20763916 -22.95983887 49.28430176 C-22.91077636 46.69084572 -22.83193034 44.10014749 -22.7421875 41.5078125 C-22.72177902 40.35066238 -22.72177902 40.35066238 -22.70095825 39.1701355 C-22.47738175 34.0523308 -21.31118624 31.09330204 -18 27 C-15.421875 24.6640625 -15.421875 24.6640625 -12.75 22.625 C-11.41195312 21.59246094 -11.41195312 21.59246094 -10.046875 20.5390625 C-9.37140625 20.03117187 -8.6959375 19.52328125 -8 19 C-8.99 17.02 -8.99 17.02 -10 15 C-8.11692557 13.11692557 -4.78608313 13.63496931 -2.2265625 13.4765625 C0.39073204 12.91636963 1.3173393 12.03004872 3 10 C2.690625 9.278125 2.38125 8.55625 2.0625 7.8125 C1.07439461 5.19692691 0.4712246 2.74881018 0 0 Z " fill="#8C52FF" transform="translate(193,12)"/>
<path d="M0 0 C1.16124034 3.30729573 2.30106701 6.62160648 3.4375 9.9375 C3.76298828 10.86369141 4.08847656 11.78988281 4.42382812 12.74414062 C6.39572732 18.53786505 7.64370422 23.8944157 8 30 C8.05986084 30.82636963 8.11972168 31.65273926 8.18139648 32.50415039 C8.91120399 44.30288805 8.42481981 53.76780383 2.82421875 64.296875 C-1.53312782 72.68301525 -2.59541466 81.45148023 -3.4375 90.75 C-3.69140618 93.26588918 -3.94800225 95.78150809 -4.20703125 98.296875 C-4.33803223 99.58013672 -4.4690332 100.86339844 -4.60400391 102.18554688 C-7.05685552 125.81276862 -11.4133079 148.78443925 -16.33724976 172.00039673 C-18.36915466 181.63931073 -20.19253577 191.31689208 -22 201 C-24.11159382 198.34752738 -25.62953084 195.87000161 -26.91796875 192.73828125 C-27.27705322 191.88314941 -27.6361377 191.02801758 -28.00610352 190.14697266 C-28.39596436 189.21159668 -28.7858252 188.2762207 -29.1875 187.3125 C-39.77740785 162.44818187 -51.15784109 136.77471305 -66.38964844 114.39160156 C-69.11357415 110.37569527 -71.70404065 106.33239307 -74.125 102.125 C-74.68445313 101.15820312 -75.24390625 100.19140625 -75.8203125 99.1953125 C-78.9034238 90.84436864 -76.29675683 81.59870506 -75 73.0625 C-72.73122794 57.46242237 -71.64171898 41.63410821 -73.578125 25.92578125 C-74.01786241 21.83378036 -73.54434269 20.63374751 -72 17 C-71.66918823 12.77463146 -71.65464497 9.0360651 -73 5 C-59.44270258 3.89933073 -45.90952399 2.924907 -32.3125 2.5 C-23.77485381 2.23032285 -15.42807567 1.64201967 -6.9765625 0.40234375 C-4 0 -4 0 0 0 Z " fill="#FEFDFF" transform="translate(321,182)"/>
<path d="M0 0 C1.98738687 0.84762256 3.75906803 1.15472646 5.88671875 1.4921875 C13.93064151 3.48005347 17.70755124 11.98528452 21.76171875 18.5546875 C28.92623641 30.15272691 35.75468137 39.03569012 46.43994141 47.52172852 C56.12367393 55.26424217 63.86628751 64.27084008 71.3125 74.13208008 C78.84461251 84.09063478 87.21939518 92.03792291 97.1875 99.53515625 C104.17996874 105.07909098 107.24358863 112.14815295 108.88671875 120.8046875 C108.23074707 120.86003662 107.57477539 120.91538574 106.89892578 120.97241211 C103.93614602 121.22478149 100.97394501 121.48340565 98.01171875 121.7421875 C96.97917969 121.82919922 95.94664062 121.91621094 94.8828125 122.00585938 C93.89667969 122.09287109 92.91054688 122.17988281 91.89453125 122.26953125 C90.9833252 122.3480835 90.07211914 122.42663574 89.13330078 122.50756836 C86.85507475 122.68464169 86.85507475 122.68464169 84.88671875 123.8046875 C82.9571562 123.88292539 81.02481418 123.89690435 79.09375 123.87890625 C77.33538818 123.8641626 77.33538818 123.8641626 75.54150391 123.84912109 C73.73238525 123.82712646 73.73238525 123.82712646 71.88671875 123.8046875 C70.78505371 123.79904785 69.68338867 123.7934082 68.54833984 123.78759766 C54.46535455 123.67631121 42.04182806 123.06345473 28.88671875 117.8046875 C24.69321068 116.2443124 21.03996843 115.50357011 16.57421875 115.2421875 C10.98750409 114.90547284 10.98750409 114.90547284 9.88671875 113.8046875 C9.81445373 111.95181248 9.80290655 110.09634872 9.82421875 108.2421875 C9.83324219 107.23027344 9.84226563 106.21835938 9.8515625 105.17578125 C9.86316406 104.39332031 9.87476563 103.61085938 9.88671875 102.8046875 C13.14882914 102.03612746 15.76290721 101.72339401 19.07421875 102.2421875 C22.57418679 102.85334112 22.57418679 102.85334112 24.88671875 102.8046875 C24.84546875 101.7940625 24.80421875 100.7834375 24.76171875 99.7421875 C24.88900653 95.73262242 25.66668966 92.60830759 26.88671875 88.8046875 C27.22807802 87.47338635 27.56597831 86.14110602 27.88671875 84.8046875 C28.54671875 84.8046875 29.20671875 84.8046875 29.88671875 84.8046875 C28.35067179 81.66277326 26.82940716 78.71872012 24.88671875 75.8046875 C24.7492265 72.78845137 24.89077443 69.82854903 25.01171875 66.8125 C24.88091731 63.66509043 24.13748817 61.66427102 22.88671875 58.8046875 C22.76296875 57.6290625 22.63921875 56.4534375 22.51171875 55.2421875 C21.77838928 51.20887542 21.03772284 50.32237611 17.88671875 47.8046875 C6.93372412 44.06532118 -5.65468124 42.67339267 -16.3046875 47.875 C-16.90152344 48.18179688 -17.49835938 48.48859375 -18.11328125 48.8046875 C-18.15066406 47.88429687 -18.18804687 46.96390625 -18.2265625 46.015625 C-18.63644226 38.12343044 -19.55694088 30.74131706 -21.39453125 23.0234375 C-22.52142253 17.97692438 -23.25539735 13.04223382 -23.17578125 7.8671875 C-23.16675781 7.09503906 -23.15773437 6.32289062 -23.1484375 5.52734375 C-23.13683594 4.95886719 -23.12523437 4.39039063 -23.11328125 3.8046875 C-21.0527827 2.98712512 -18.98979272 2.17584016 -16.92578125 1.3671875 C-15.77722656 0.91472656 -14.62867188 0.46226563 -13.4453125 -0.00390625 C-7.92379993 -1.97818683 -5.38800719 -2.64140916 0 0 Z " fill="#FDFDFF" transform="translate(205.11328125,44.1953125)"/>
<path d="M0 0 C3.47775179 1.51553404 5.9557984 3.5773456 8.75 6.125 C9.94882812 7.21167969 9.94882812 7.21167969 11.171875 8.3203125 C11.77515625 8.87460938 12.3784375 9.42890625 13 10 C8.61367881 15.51101893 3.90997773 20.11123465 -2 24 C-2.66 24 -3.32 24 -4 24 C-4.50602525 15.36008741 -2.71517795 8.14553386 0 0 Z " fill="#FAF8FF" transform="translate(405,170)"/>
<path d="M0 0 C0.66 0.33 1.32 0.66 2 1 C-0.82257567 4.08719214 -3.45059542 6.37336459 -7.0625 8.5 C-10.48714845 10.53925191 -12.71979327 12.67469851 -15 16 C-15.33 15.01 -15.66 14.02 -16 13 C-12.17053884 6.07751251 -7.27188304 2.60690147 0 0 Z " fill="#F6F2FF" transform="translate(151,149)"/>
<path d="M0 0 C0.66 0.33 1.32 0.66 2 1 C1.71640113 2.4391134 1.42278601 3.87625518 1.125 5.3125 C0.96257812 6.11300781 0.80015625 6.91351563 0.6328125 7.73828125 C0 10 0 10 -2 13 C-2.66 12.67 -3.32 12.34 -4 12 C-2.66666667 8 -1.33333333 4 0 0 Z " fill="#AD84FF" transform="translate(135,156)"/>
</svg>
