<svg xmlns="http://www.w3.org/2000/svg" xmlns:xlink="http://www.w3.org/1999/xlink" width="500" zoomAndPan="magnify" viewBox="0 0 375 374.999991" height="500" preserveAspectRatio="xMidYMid meet" version="1.0"><defs><clipPath id="b48c0dcb9d"><path d="M 43 8.320312 L 332 8.320312 L 332 366.820312 L 43 366.820312 Z M 43 8.320312 " clip-rule="nonzero"/></clipPath></defs><g clip-path="url(#b48c0dcb9d)"><path fill="#6e38d9" d="M 144.960938 9.371094 C 144.960938 8.53125 145.800781 8.8125 146.359375 9.089844 C 147.757812 10.210938 148.597656 11.328125 149.71875 12.730469 C 150.277344 11.890625 150.554688 9.929688 151.957031 10.492188 C 152.515625 11.890625 151.957031 13.007812 151.675781 14.410156 C 154.753906 18.046875 157.832031 21.683594 161.472656 24.484375 C 167.90625 28.960938 173.226562 34.558594 179.101562 39.316406 C 186.097656 45.472656 194.214844 50.230469 200.371094 57.507812 C 202.328125 59.746094 204.007812 62.542969 205.6875 65.0625 C 207.367188 67.300781 210.164062 67.582031 212.125 68.980469 C 215.203125 70.9375 217.722656 73.179688 220.519531 75.417969 C 222.757812 77.375 224.4375 79.613281 226.957031 81.292969 C 229.195312 82.414062 231.714844 82.691406 233.953125 83.53125 C 239.832031 84.933594 245.148438 87.730469 250.183594 91.089844 C 251.023438 91.648438 252.144531 92.769531 253.261719 92.207031 C 254.664062 91.648438 256.0625 90.808594 256.902344 89.128906 C 257.460938 88.289062 257.179688 86.890625 257.179688 85.773438 C 254.941406 86.332031 252.425781 87.449219 249.90625 86.332031 C 248.507812 85.773438 248.785156 83.8125 248.507812 82.691406 C 248.507812 81.292969 247.667969 80.175781 247.386719 79.054688 C 247.386719 78.773438 247.667969 78.214844 247.945312 77.9375 C 247.386719 77.65625 246.828125 77.375 246.546875 76.816406 C 246.546875 75.695312 246.546875 74.578125 246.828125 73.457031 C 245.707031 73.179688 244.867188 72.617188 244.027344 71.777344 C 244.867188 69.539062 246.265625 67.300781 246.546875 64.78125 C 246.265625 64.78125 245.707031 64.78125 245.425781 64.78125 C 246.265625 63.101562 244.867188 61.984375 244.589844 60.585938 C 244.867188 58.625 245.425781 56.386719 245.988281 54.429688 C 246.265625 53.027344 247.105469 51.628906 247.667969 50.230469 C 247.386719 49.109375 246.828125 47.429688 247.386719 46.03125 C 248.785156 42.953125 252.425781 41.554688 255.503906 41.273438 C 260.820312 40.714844 266.417969 40.15625 271.453125 42.394531 C 275.09375 44.074219 277.332031 47.429688 278.730469 51.347656 C 280.128906 54.707031 280.410156 58.625 279.851562 62.265625 C 279.289062 66.183594 277.609375 69.820312 276.773438 73.457031 C 276.210938 77.097656 277.609375 80.734375 279.011719 83.8125 C 279.851562 86.050781 280.96875 88.851562 283.488281 89.96875 C 286.847656 91.367188 290.203125 92.488281 293.5625 93.328125 C 297.480469 94.449219 301.679688 94.449219 305.316406 96.6875 C 309.234375 99.203125 312.59375 102.5625 315.113281 106.480469 C 316.789062 109.28125 317.628906 112.359375 318.75 115.15625 C 319.589844 116.554688 320.988281 117.394531 322.109375 118.515625 C 325.464844 122.152344 327.984375 126.351562 329.945312 130.546875 C 331.34375 133.628906 332.183594 137.265625 331.34375 140.625 C 330.785156 142.863281 328.265625 143.421875 326.585938 144.820312 C 323.507812 147.339844 320.707031 149.859375 317.070312 151.539062 C 311.195312 154.335938 304.757812 156.015625 298.878906 159.09375 C 298.878906 160.773438 298.320312 162.171875 297.761719 163.851562 C 296.363281 166.648438 296.363281 169.730469 295.523438 172.808594 C 294.960938 175.046875 295.242188 177.285156 295.523438 179.523438 C 295.800781 182.601562 296.082031 185.679688 296.921875 188.757812 C 298.601562 195.753906 300.558594 202.75 302.238281 210.027344 C 303.636719 215.34375 305.035156 220.941406 306.4375 226.539062 C 306.4375 227.097656 306.714844 227.660156 307.277344 227.9375 C 307.277344 228.777344 306.996094 229.617188 307.277344 230.457031 C 310.355469 243.609375 308.117188 257.324219 309.792969 270.757812 C 310.355469 275.515625 308.675781 279.992188 307.554688 284.191406 C 305.316406 291.746094 303.636719 299.582031 301.117188 307.136719 C 297.761719 317.492188 295.523438 327.847656 293.28125 338.480469 C 292.445312 343.519531 291.324219 348.277344 291.042969 353.3125 C 290.203125 353.035156 289.363281 353.035156 288.804688 353.035156 C 290.203125 354.992188 291.042969 357.511719 293.28125 358.632812 C 295.523438 359.75 298.039062 360.589844 299.71875 362.550781 C 300.558594 363.390625 300.28125 365.347656 298.878906 365.90625 C 297.480469 366.46875 296.082031 366.1875 294.683594 366.1875 C 291.605469 366.1875 288.527344 366.1875 285.445312 365.628906 C 283.488281 365.347656 281.25 364.226562 280.128906 362.269531 C 278.449219 359.472656 275.933594 356.953125 272.574219 356.390625 C 272.292969 356.953125 272.015625 357.792969 271.734375 358.351562 C 268.65625 357.792969 265.578125 356.953125 262.777344 355.554688 C 262.777344 353.875 263.058594 352.472656 263.058594 351.074219 C 263.058594 350.796875 262.5 350.515625 262.5 350.234375 C 263.339844 344.359375 266.976562 339.320312 267.816406 333.445312 C 268.933594 327.847656 270.894531 322.25 272.855469 316.652344 C 274.253906 308.816406 274.8125 300.699219 277.609375 293.144531 C 277.890625 285.027344 279.851562 276.914062 283.488281 269.636719 C 281.527344 255.085938 275.371094 241.929688 270.613281 228.21875 C 268.375 233.816406 266.136719 239.414062 264.738281 245.011719 C 262.5 253.40625 259.421875 261.519531 257.742188 269.636719 C 256.34375 275.234375 255.503906 281.109375 254.382812 286.707031 C 252.425781 296.222656 250.464844 305.738281 246.828125 314.695312 C 248.226562 315.8125 249.90625 316.652344 251.023438 318.050781 C 251.863281 318.890625 251.023438 320.011719 250.464844 320.851562 C 247.945312 323.371094 244.867188 325.046875 241.789062 327.007812 C 239.550781 333.722656 238.429688 340.71875 237.03125 347.4375 C 238.429688 350.515625 239.550781 353.59375 240.949219 356.671875 C 241.789062 358.910156 244.027344 359.472656 245.707031 360.589844 C 247.105469 361.148438 248.226562 363.109375 247.386719 364.507812 C 246.828125 365.628906 245.707031 365.347656 244.867188 365.347656 C 241.230469 365.628906 237.871094 365.628906 234.511719 365.347656 C 233.113281 365.066406 231.714844 365.066406 231.15625 363.667969 C 230.316406 362.269531 229.753906 360.589844 228.636719 359.472656 C 228.355469 361.148438 228.355469 363.390625 226.675781 364.507812 C 223.597656 366.1875 219.960938 366.46875 216.601562 366.1875 C 214.082031 365.90625 213.246094 363.109375 213.804688 360.871094 C 214.363281 358.351562 216.042969 356.390625 216.882812 353.875 C 215.484375 352.472656 214.363281 351.355469 213.246094 349.675781 C 214.921875 346.316406 217.164062 342.960938 217.722656 339.042969 C 216.882812 337.082031 215.761719 335.402344 214.644531 333.445312 C 208.765625 333.722656 202.890625 332.046875 196.734375 333.445312 C 195.054688 334.003906 193.09375 334.5625 191.414062 335.964844 C 192.253906 337.921875 193.652344 339.882812 192.816406 342.121094 C 191.695312 344.078125 189.457031 344.636719 187.496094 345.199219 C 182.179688 346.039062 176.863281 345.757812 171.546875 345.476562 C 168.746094 344.917969 166.226562 344.636719 163.710938 343.800781 C 162.871094 343.519531 161.75 343.238281 161.191406 342.121094 C 160.910156 341 162.589844 339.882812 161.75 338.761719 C 160.910156 337.363281 159.230469 336.800781 157.832031 336.523438 C 156.433594 336.242188 155.3125 337.363281 154.195312 336.800781 C 150.277344 336.242188 146.359375 334.285156 142.71875 332.605469 C 141.042969 336.242188 139.082031 340.441406 140.480469 344.636719 C 141.601562 347.71875 143 350.515625 144.398438 353.3125 C 145.238281 354.992188 145.800781 356.953125 147.476562 357.792969 C 149.15625 359.191406 151.675781 358.910156 153.636719 360.308594 C 154.753906 361.148438 155.875 362.828125 154.753906 364.226562 C 153.914062 365.066406 152.796875 364.789062 151.957031 365.066406 C 148.316406 365.347656 144.679688 365.347656 141.320312 365.066406 C 139.363281 365.066406 137.125 364.789062 136.285156 362.828125 C 134.046875 359.191406 131.804688 355.554688 127.609375 353.875 C 126.769531 353.3125 125.648438 354.152344 125.648438 355.273438 C 125.371094 358.070312 125.648438 361.148438 125.929688 363.949219 C 124.808594 363.949219 123.96875 363.949219 122.851562 363.949219 C 123.410156 360.308594 123.691406 356.113281 122.011719 352.753906 C 120.890625 350.796875 119.210938 349.117188 118.933594 346.597656 C 118.933594 344.078125 120.050781 341.558594 121.453125 339.601562 C 122.011719 338.761719 122.570312 338.761719 123.410156 338.480469 C 126.488281 334.5625 128.726562 329.804688 130.128906 325.046875 C 125.371094 322.808594 119.773438 321.128906 114.175781 321.128906 C 112.777344 321.128906 111.375 321.410156 110.257812 322.25 C 109.699219 323.089844 109.699219 323.929688 109.417969 324.488281 C 108.578125 325.609375 107.179688 325.328125 106.339844 325.328125 C 99.621094 324.210938 93.746094 320.851562 88.707031 316.652344 C 85.910156 319.453125 83.109375 322.808594 80.871094 326.167969 C 79.191406 328.40625 78.074219 330.925781 76.675781 333.164062 C 74.714844 337.082031 72.195312 340.441406 69.398438 343.800781 C 66.601562 347.15625 63.242188 350.234375 60.164062 353.3125 C 57.085938 357.230469 54.566406 361.710938 50.089844 364.226562 C 48.410156 364.226562 46.730469 364.507812 45.050781 363.667969 C 43.652344 362.269531 43.371094 360.03125 43.089844 357.792969 C 42.8125 353.59375 43.652344 349.394531 45.890625 346.039062 C 48.410156 341.839844 52.605469 339.882812 55.125 335.964844 C 55.40625 335.402344 55.683594 334.84375 55.125 334.285156 C 53.167969 334.5625 51.488281 335.683594 49.527344 336.242188 C 49.527344 335.125 49.25 334.285156 48.96875 333.445312 C 50.929688 332.882812 53.167969 332.882812 54.847656 331.765625 C 57.363281 330.367188 57.925781 327.007812 60.441406 325.886719 C 62.402344 324.769531 64.640625 325.609375 66.601562 325.886719 C 68.277344 324.769531 69.398438 323.089844 70.238281 321.410156 C 72.757812 317.773438 74.4375 313.574219 76.394531 309.65625 C 74.15625 308.257812 72.757812 306.019531 71.355469 304.058594 C 69.957031 302.378906 69.117188 300.421875 67.160156 299.300781 C 66.601562 300.140625 66.320312 301.539062 64.921875 301.820312 C 63.519531 301.820312 62.683594 300.421875 61.5625 299.582031 C 59.882812 297.621094 58.484375 295.382812 57.085938 293.144531 C 57.925781 291.746094 59.324219 290.90625 59.324219 289.226562 C 59.042969 287.828125 58.203125 286.707031 56.804688 286.148438 C 55.40625 285.589844 54.566406 286.988281 53.445312 287.269531 C 52.328125 286.988281 51.488281 285.867188 51.207031 284.75 C 49.527344 281.949219 48.6875 279.152344 47.847656 276.074219 C 47.289062 273.835938 46.449219 271.316406 47.007812 269.078125 C 47.289062 267.957031 47.570312 266.558594 48.6875 266.277344 C 50.367188 266 52.046875 266.839844 53.726562 267.117188 C 63.242188 267.957031 72.757812 264.878906 80.871094 260.121094 C 88.988281 255.644531 96.542969 249.488281 103.820312 243.332031 C 113.335938 234.375 122.851562 225.140625 129.566406 213.945312 C 130.40625 212.828125 130.6875 211.425781 130.964844 209.746094 C 131.804688 205.828125 133.765625 201.910156 136.003906 198.554688 C 139.363281 193.796875 144.121094 190.15625 147.476562 185.402344 C 151.675781 179.523438 151.957031 171.96875 149.996094 165.53125 C 146.917969 157.136719 141.882812 150.136719 138.523438 142.023438 C 137.402344 139.503906 136.84375 136.707031 136.003906 134.1875 C 135.722656 135.867188 135.722656 137.265625 135.164062 138.664062 C 134.324219 141.464844 132.085938 143.421875 130.128906 145.660156 C 128.726562 146.78125 128.449219 149.019531 128.726562 150.699219 C 129.007812 152.9375 130.128906 154.894531 130.964844 156.855469 C 129.289062 155.734375 128.167969 154.335938 127.328125 152.378906 C 126.488281 150.417969 126.488281 148.179688 126.210938 145.941406 C 125.371094 149.019531 123.96875 151.816406 122.289062 154.335938 C 120.050781 157.695312 115.574219 159.09375 111.375 159.09375 C 113.617188 158.253906 115.855469 157.414062 117.8125 156.015625 C 120.050781 154.054688 121.171875 150.699219 121.171875 147.898438 C 119.492188 149.578125 117.535156 150.976562 115.292969 151.816406 C 112.496094 152.9375 109.699219 153.21875 106.617188 152.9375 C 103.820312 152.9375 101.023438 152.9375 98.503906 151.539062 C 101.863281 151.257812 104.941406 149.578125 108.019531 148.179688 C 110.257812 146.78125 111.375 144.542969 112.496094 142.300781 C 112.496094 142.300781 112.214844 142.300781 112.214844 142.300781 C 109.136719 146.5 103.820312 148.179688 98.78125 147.058594 C 101.863281 145.941406 104.941406 144.820312 107.179688 142.582031 C 108.296875 141.183594 108.578125 139.503906 109.136719 137.546875 C 109.417969 135.867188 110.257812 134.464844 111.375 133.066406 C 109.417969 133.90625 106.898438 134.1875 105.21875 135.585938 C 102.699219 137.824219 98.78125 138.945312 95.144531 138.105469 C 96.824219 136.984375 99.0625 136.425781 100.460938 135.027344 C 101.863281 133.90625 102.421875 132.226562 103.261719 130.828125 C 104.941406 128.871094 108.019531 128.308594 109.699219 126.351562 C 111.375 124.390625 111.9375 121.875 112.777344 119.355469 C 110.535156 120.472656 107.738281 121.035156 106.058594 122.992188 C 104.101562 125.230469 102.699219 128.03125 100.183594 129.710938 C 98.503906 131.109375 95.984375 131.386719 94.027344 130.828125 C 96.542969 130.269531 99.621094 129.429688 101.023438 126.910156 C 102.421875 124.113281 103.539062 121.035156 105.78125 119.074219 C 108.019531 116.835938 111.097656 116.554688 113.054688 114.597656 C 114.175781 113.476562 114.734375 112.078125 115.574219 110.679688 C 112.777344 113.757812 108.019531 113.476562 104.941406 116.277344 C 102.699219 118.234375 101.863281 121.3125 100.742188 124.113281 C 100.460938 125.511719 99.34375 126.628906 97.945312 127.191406 C 98.78125 126.351562 99.621094 125.511719 99.902344 124.113281 C 100.460938 121.875 100.460938 119.632812 101.582031 117.394531 C 102.980469 114.597656 105.78125 112.359375 108.859375 111.238281 C 111.375 109.839844 114.453125 108.441406 115.292969 105.640625 C 115.855469 103.121094 115.855469 100.605469 116.972656 98.367188 C 118.652344 95.007812 122.011719 93.046875 125.648438 92.207031 C 127.886719 91.929688 129.566406 89.128906 129.007812 87.171875 C 128.449219 83.53125 128.167969 79.894531 127.609375 76.257812 C 127.328125 72.058594 127.328125 67.582031 127.046875 63.382812 C 127.328125 54.148438 128.726562 45.191406 128.449219 35.957031 C 128.449219 32.878906 130.128906 30.359375 132.367188 28.402344 C 134.882812 26.441406 137.402344 24.761719 139.640625 22.804688 C 138.523438 22.523438 136.84375 21.683594 136.84375 20.285156 C 139.363281 19.726562 141.882812 19.726562 144.121094 19.726562 C 145.519531 18.328125 146.917969 16.925781 148.039062 15.527344 C 146.636719 13.570312 144.679688 11.890625 144.960938 9.371094 Z M 149.996094 18.046875 C 149.4375 18.886719 148.878906 19.726562 148.316406 20.566406 C 149.4375 20.84375 150.835938 20.84375 151.957031 21.125 C 151.117188 20.003906 150.554688 19.167969 149.996094 18.046875 Z M 145.238281 32.878906 C 142.71875 33.4375 140.761719 35.398438 138.242188 35.957031 C 137.683594 36.238281 136.84375 36.238281 136.5625 36.515625 C 136.285156 38.476562 136.285156 40.433594 136.5625 42.113281 C 137.402344 47.710938 138.523438 53.308594 139.640625 58.625 C 140.203125 62.542969 140.203125 66.183594 140.203125 70.101562 C 144.121094 66.742188 149.71875 65.621094 154.753906 65.902344 C 157.832031 66.183594 160.632812 67.300781 163.710938 67.582031 C 166.507812 67.859375 169.867188 69.539062 170.707031 72.617188 C 171.265625 74.019531 169.867188 75.417969 170.984375 76.535156 C 172.664062 79.613281 173.226562 82.972656 172.945312 86.050781 C 172.664062 87.449219 172.105469 88.851562 172.945312 90.25 C 173.785156 91.929688 175.183594 93.328125 176.304688 95.007812 C 176.582031 96.6875 174.625 96.964844 173.503906 97.527344 C 173.785156 98.644531 174.34375 99.484375 174.625 100.605469 C 174.625 101.164062 174.0625 101.722656 173.503906 102.285156 C 174.902344 103.402344 173.503906 104.523438 172.664062 105.363281 C 172.386719 106.480469 172.664062 107.601562 172.664062 108.441406 C 172.664062 109.558594 171.824219 110.398438 170.707031 110.679688 C 167.90625 110.957031 165.390625 109.839844 162.871094 109.28125 C 161.75 109 161.472656 110.398438 161.191406 110.957031 C 160.351562 113.757812 160.632812 116.554688 161.75 119.074219 C 164.550781 118.792969 167.066406 118.515625 169.585938 119.074219 C 175.464844 120.472656 181.0625 123.273438 186.9375 124.390625 C 190.855469 125.230469 195.054688 124.953125 198.972656 124.953125 C 203.449219 124.953125 207.648438 125.230469 212.125 125.792969 C 215.484375 125.792969 218.5625 124.953125 221.917969 124.390625 C 226.398438 123.550781 231.15625 123.832031 235.632812 123.832031 C 233.671875 119.914062 233.113281 115.15625 230.316406 111.796875 C 227.238281 107.878906 223.039062 105.082031 219.121094 102.285156 C 215.484375 99.484375 212.40625 95.847656 209.328125 92.207031 C 204.847656 85.773438 199.25 79.613281 193.933594 73.738281 C 190.574219 70.101562 186.65625 67.582031 183.019531 64.503906 C 179.101562 61.425781 176.304688 57.226562 173.503906 53.027344 C 170.425781 48.550781 167.347656 43.792969 164.550781 39.035156 C 163.429688 37.355469 162.03125 35.957031 160.070312 35.117188 C 158.671875 34.839844 156.992188 35.117188 155.59375 34.558594 C 153.636719 33.71875 151.957031 32.597656 150.277344 31.757812 C 148.878906 33.160156 146.917969 32.320312 145.238281 32.878906 Z M 303.917969 126.910156 C 301.679688 133.066406 300.839844 139.785156 300.28125 146.21875 C 305.316406 143.703125 309.515625 139.503906 313.433594 135.585938 C 310.355469 132.507812 306.996094 129.988281 303.917969 126.910156 Z M 218 138.382812 C 207.367188 138.382812 196.734375 141.183594 186.097656 140.34375 C 188.617188 143.980469 188.058594 148.460938 186.097656 152.097656 C 185.816406 152.9375 184.980469 153.777344 185.257812 154.894531 C 185.816406 157.695312 186.65625 160.492188 186.9375 163.292969 C 187.777344 172.246094 185.816406 181.484375 184.699219 190.4375 C 184.140625 195.476562 183.578125 200.792969 183.019531 205.828125 C 183.019531 206.949219 183.019531 208.070312 183.578125 208.910156 C 184.980469 212.265625 186.65625 215.34375 188.617188 218.421875 C 193.375 225.417969 198.132812 232.417969 201.769531 239.972656 C 205.410156 247.527344 209.328125 255.363281 212.964844 262.921875 C 217.164062 271.035156 220.242188 279.433594 223.878906 287.828125 C 226.117188 271.597656 230.316406 255.644531 233.394531 239.414062 C 235.351562 229.058594 236.191406 218.703125 237.3125 208.070312 C 237.589844 205.828125 238.429688 203.589844 238.152344 201.351562 C 238.710938 192.675781 241.789062 184.5625 245.707031 176.726562 C 245.988281 176.445312 245.988281 175.886719 246.265625 175.324219 C 247.105469 166.648438 247.105469 157.414062 244.589844 149.019531 C 243.46875 144.542969 241.507812 140.625 240.109375 136.425781 C 232.835938 137.824219 225.277344 138.382812 218 138.382812 Z M 218 138.382812 " fill-opacity="1" fill-rule="evenodd"/></g></svg>